<?xml version="1.0" encoding="utf-8"?>
<svg viewBox="0 0 500 300" xmlns="http://www.w3.org/2000/svg">
  <path style="fill: rgb(0, 150, 205);" transform="matrix(0.78125, 0, 0, 0.78125, -97.546677, -155.821655)" d="M 216.826 367.057 A 74.51 74.51 0 0 1 291.329 293.561 L 291.329 368.072 Z"/>
  <rect x="129.47" y="48.622" width="270.326" height="181.177" style="fill: rgb(216, 216, 216);"/>
  <rect x="44.007" y="128.84" width="99.642" height="100.817" style="fill: rgb(216, 216, 216);"/>
  <circle style="" cx="126.214" cy="228.766" r="40.244"/>
  <circle style="" cx="-333.214" cy="-228.766" r="40.244" transform="matrix(-1, 0, 0, -1, 0, 0)"/>
  <path d="M 299.762 109.365 L 295.482 126.535 L 284.632 126.535 L 294.442 87.155 L 322.722 87.155 L 321.462 92.195 L 304.052 92.195 L 301.012 104.355 L 314.462 104.355 L 313.222 109.365 L 299.762 109.365 ZM 333.084 111.825 L 329.414 126.535 L 318.564 126.535 L 328.374 87.155 L 347.734 87.155 C 349.56 87.155 351.267 87.372 352.854 87.805 C 354.44 88.232 355.77 88.905 356.844 89.825 C 357.924 90.745 358.667 91.935 359.074 93.395 C 359.487 94.855 359.434 96.622 358.914 98.695 C 358.507 100.322 357.784 101.848 356.744 103.275 C 355.704 104.708 354.477 105.985 353.064 107.105 C 351.644 108.225 350.104 109.155 348.444 109.895 C 346.784 110.635 345.13 111.122 343.484 111.355 C 343.89 112.562 344.347 113.702 344.854 114.775 C 345.36 115.855 345.894 116.862 346.454 117.795 C 347.014 118.735 347.587 119.602 348.174 120.395 C 348.76 121.188 349.327 121.915 349.874 122.575 C 351.167 124.102 352.497 125.422 353.864 126.535 L 340.324 126.535 C 339.49 125.495 338.764 124.245 338.144 122.785 C 337.617 121.545 337.157 120.012 336.764 118.185 C 336.37 116.352 336.247 114.232 336.394 111.825 L 333.084 111.825 Z M 347.894 98.695 C 348.554 96.055 348.397 94.115 347.424 92.875 C 346.444 91.635 344.67 91.015 342.104 91.015 L 338.274 91.015 L 334.014 108.105 L 337.844 108.105 C 339.21 108.105 340.444 107.845 341.544 107.325 C 342.65 106.805 343.62 106.112 344.454 105.245 C 345.294 104.378 346 103.382 346.574 102.255 C 347.147 101.122 347.587 99.935 347.894 98.695 ZM 388.496 121.505 L 387.246 126.535 L 358.976 126.535 L 368.786 87.155 L 397.066 87.155 L 395.806 92.195 L 378.396 92.195 L 375.356 104.355 L 388.806 104.355 L 387.566 109.365 L 374.106 109.365 L 371.086 121.505 L 388.496 121.505 ZM 423.494 121.505 L 422.244 126.535 L 393.974 126.535 L 403.784 87.155 L 432.064 87.155 L 430.804 92.195 L 413.394 92.195 L 410.354 104.355 L 423.804 104.355 L 422.564 109.365 L 409.104 109.365 L 406.084 121.505 L 423.494 121.505 Z" transform="matrix(1.5904850959777832, 0, 0, 1, -304.6385803222656, 17.773176193237305)" style="fill: rgb(51, 51, 51); white-space: pre;"/>
  <g transform="matrix(1.590485, 0, 0, 1, -273.308655, -124.226822)">
    <path d="M 371.175 184.226 L 391.225 218.95 L 351.125 218.95 L 371.175 184.226 Z" style="fill: rgb(0, 183, 255);" transform="matrix(0.861082, -0.508465, 0.508465, 0.861082, 15.979725, 203.040222)"/>
  </g>
  <g transform="matrix(1.590485, 0, 0, 1, -272.308655, -54.226826)">
    <path d="M 371.175 184.226 L 391.225 218.95 L 351.125 218.95 L 371.175 184.226 Z" style="fill: rgb(0, 183, 255);" transform="matrix(0.861082, -0.508465, 0.508465, 0.861082, 15.979725, 203.040222)"/>
  </g>
  <g transform="matrix(1.590485, 0, 0, 1, -272.308655, 17.773176)">
    <path d="M 371.175 184.226 L 391.225 218.95 L 351.125 218.95 L 371.175 184.226 Z" style="fill: rgb(0, 183, 255);" transform="matrix(0.861082, -0.508465, 0.508465, 0.861082, 15.979725, 203.040222)"/>
  </g>
  <circle style="fill: rgb(216, 216, 216);" cx="127.192" cy="229.055" r="23"/>
  <circle style="fill: rgb(216, 216, 216);" cx="333.178" cy="229" r="23"/>
</svg>