<svg viewBox="-10 -5 120 100"
    xmlns="http://www.w3.org/2000/svg" data-reactroot="">
    <path d="M 15.000,20.000 Q -0.016,20.290 0.000,50.000 L0.000,55.000 Q -4.847,55.072 -5.000,60.000 L-5.000,65.000 Q -5.169,69.887 0.000,70.000 L10.000,70.000 A10.000,10.000 0 0,1 30.000,70.000 L55.000,70.000 A10.000,10.000 0 0,1 75.000,70.000 L80.000,70.000 Q 85.008,69.887 85.000,65.000 L85.000,60.000 Q 84.847,55.233 80.000,55.000 L80.000,15.000 Q 79.855,10.145 75.000,10.000 L20.000,10.000 Q 15.282,10.145 15.000,15.000 L15.000,20.000 Z" fill="#e1f391" stroke="black" stroke-width="5"></path>
    <ellipse cx="20" cy="70" rx="10" ry="10" style="fill:black;stroke:black;stroke-width:0.1"></ellipse>
    <ellipse cx="65" cy="70" rx="10" ry="10" style="fill:black;stroke:black;stroke-width:0.1"></ellipse>
    <text y="50" x="10" font-size="35" fill="#000000">Free</text>
    <path d="M 90.000,20.000 L105.000,20.000 Z" fill="transparent" stroke="black" stroke-width="10"></path>
    <path d="M 90.000,45.000 L105.000,45.000 Z" fill="transparent" stroke="black" stroke-width="10"></path>
    <path d="M 90.000,70.000 L105.000,70.000 Z" fill="transparent" stroke="black" stroke-width="10"></path>
</svg>